<svg xmlns="http://www.w3.org/2000/svg" xmlns:xlink="http://www.w3.org/1999/xlink" version="1.1" id="Layer_1" x="0px" y="0px" viewBox="0 0 1621.1 258.7" style="enable-background:new 0 0 1621.1 258.7;" xml:space="preserve" width="1621.1"  height="258.7" >
<style type="text/css">
	.st0{fill:url(#SVGID_1_);}
</style>
<linearGradient id="SVGID_1_" gradientUnits="userSpaceOnUse" x1="0" y1="129.374" x2="1621.1152" y2="129.374">
	<stop offset="0" style="stop-color:#6586EC"/>
	<stop offset="0" style="stop-color:#7D72E5"/>
	<stop offset="0.2407" style="stop-color:#8A62EA"/>
	<stop offset="0.4575" style="stop-color:#AF69A5"/>
	<stop offset="0.6536" style="stop-color:#DA7B50"/>
	<stop offset="0.7849" style="stop-color:#EB8439"/>
	<stop offset="1" style="stop-color:#FD8516"/>
</linearGradient>
<path class="st0" d="M160.9,27.4C147,15.9,130.1,9,110.1,6.6c-5.6-0.7-11.5-1.1-17.6-1.2c-6.1-0.1-10.1-0.2-12.1-0.2H0v248.4h80.4  c2,0,6-0.1,12.1-0.2c6.1-0.1,12-0.5,17.6-1.2c20-2.4,37-9.4,50.9-20.9c13.9-11.5,24.5-26.1,31.7-43.8c7.2-17.7,10.9-37.1,10.9-58.1  s-3.6-40.4-10.9-58.1C185.4,53.5,174.9,38.9,160.9,27.4z M149,163.9c-3.3,11.2-8.3,20.7-15.2,28.6c-6.8,7.9-15.7,13-26.5,15.2  c-4.3,0.8-9,1.3-14.3,1.5c-5.3,0.2-9.5,0.3-12.6,0.3H47.6V49.3h32.8c3.1,0,7.3,0.1,12.6,0.2c5.3,0.1,10.1,0.6,14.3,1.6  c10.5,2.1,19.1,7,26,14.7c6.9,7.7,12,17.1,15.4,28.3c3.4,11.2,5.1,22.9,5.1,35.4C153.9,141.2,152.2,152.7,149,163.9z M378.6,75.9  c-13.7-9.2-30.3-13.8-49.9-13.8c-18.4,0-34.7,4.2-48.8,12.5c-14.1,8.3-25.2,20-33.3,35.1c-8.1,15.1-12.1,32.8-12.1,53.1  c0,18.6,4.1,35.2,12.3,49.6c8.2,14.4,19.6,25.8,34.2,34c14.5,8.2,31.4,12.3,50.5,12.3c17.9,0,34.5-4.7,49.6-14.1  c15.1-9.4,26.2-22.7,33.2-39.7l-46.9-13.5c-3.5,7.6-8.5,13.4-15,17.4c-6.6,4-14.4,6-23.6,6c-14.6,0-25.7-4.7-33.2-14.2  c-5.5-6.9-9-16-10.5-27.2h84.4h23.8h22.6c2-22.5-0.3-42.1-6.9-58.8C402.4,98,392.3,85.1,378.6,75.9z M330.8,102.8  c13.7,0,23.5,4.2,29.6,12.5c4,5.5,6.6,13.3,8,23.4h-82.1c1.8-8.6,4.9-15.7,9.2-21.3C303.1,107.7,314.9,102.8,330.8,102.8z   M623.4,134.2c0.5,6.8,0.7,11.7,0.7,14.8v104.5h-47.6v-88c0-4.3-0.2-9.7-0.7-16.3c-0.5-6.6-1.9-13.3-4.3-19.9  c-2.4-6.7-6.4-12.2-11.8-16.7c-5.5-4.5-13.2-6.7-23.2-6.7c-4,0-8.3,0.6-12.9,1.9c-4.6,1.3-8.9,3.7-12.9,7.3c-4,3.6-7.3,8.9-9.9,16  c-2.6,7-3.9,16.3-3.9,27.9v94.5h-47.6V67.3h41.7v19.2c4.3-4.8,9.3-9.1,14.9-12.8c12-7.9,27.2-11.9,45.5-11.9  c14.6,0,26.5,2.5,35.7,7.4c9.2,4.9,16.4,11.2,21.5,18.8c5.1,7.6,8.8,15.5,11,23.7C621.6,119.9,622.9,127.4,623.4,134.2z M726.9,67.3  h53.8v36.2h-53.8v68.3c0,7.2,0.1,13.8,0.3,19.6c0.2,5.8,1.4,10.4,3.5,13.9c4.1,6.6,10.8,10.1,19.8,10.7c9.1,0.6,19.1,0.1,30.2-1.4  v39c-12.9,2.4-25.5,3.5-37.9,3.2c-12.4-0.3-23.4-2.5-33.1-6.6c-9.7-4.1-17.1-10.7-22.2-19.8c-4.6-8.5-7-17.2-7.2-26  c-0.2-8.8-0.3-18.8-0.3-29.9v-71.1h-31.7V67.3H680V15.5h46.9V67.3z M970.8,95.9c-6.6-12.4-16.2-21.2-29-26.2  c-12.8-5.1-27.4-7.6-43.8-7.6c-22.4,0-40.1,4.8-53.1,14.5c-13,9.7-21.9,22.2-26.6,37.6l42.4,13.5c3-8.5,8.2-14.4,15.7-17.8  c7.5-3.3,14.7-5,21.6-5c12.4,0,21.3,2.6,26.6,7.8c4.1,4.1,6.7,9.9,7.6,17.6c-7.9,1.2-15.5,2.3-22.6,3.4c-12.1,1.8-22.9,3.7-32.4,5.6  c-9.5,2-17.8,4.2-24.7,6.7c-10,3.7-18,8.3-23.9,13.7c-5.9,5.5-10.2,11.8-12.9,18.9c-2.6,7.1-4,15-4,23.6c0,10.3,2.4,19.8,7.2,28.4  c4.8,8.6,11.8,15.4,21,20.5c9.3,5.1,20.6,7.7,33.9,7.7c16.1,0,29.4-2.8,39.9-8.4c8.3-4.4,16.1-11,23.5-19.7v22.9h41.1V139.7  c0-8.5-0.3-16.2-1-23.1C976.7,109.7,974.5,102.8,970.8,95.9z M927,197c-1.3,2.6-3.7,5.9-7.2,9.8c-3.5,3.9-8.2,7.4-14.1,10.4  c-5.9,3-13.2,4.6-21.8,4.6c-5.4,0-10.1-0.8-14-2.4c-3.9-1.6-6.9-3.9-9.1-7c-2.1-3-3.2-6.7-3.2-11c0-3.1,0.7-5.9,2-8.5  c1.3-2.5,3.4-4.9,6.2-7c2.8-2.1,6.5-4.1,11.1-6c4-1.5,8.7-2.9,14-4.1c5.3-1.3,12.2-2.7,20.9-4.2c5.5-1,12.2-2.2,19.9-3.5  c-0.1,3.3-0.3,6.9-0.5,11C930.8,186,929.4,191.9,927,197z M1026.7,0h46.9v253.6h-46.9V0z M1260.9,74.9  c-13.2-8.5-28.8-12.8-46.6-12.8c-16.5,0-30.5,3.7-42.1,11.2V5.2H1125v248.4h41.4v-10.7c1.3,1,2.6,2,4,3  c12.4,8.6,27.9,12.9,46.4,12.9c17.1,0,32.1-4.3,45-12.9c12.9-8.6,22.9-20.4,30.1-35.2c7.2-14.8,10.8-31.6,10.8-50.2  c0-19-3.7-35.9-11-50.6C1284.4,95,1274.2,83.4,1260.9,74.9z M1248.4,189c-3.1,8.6-7.9,15.4-14.3,20.4c-6.4,5.1-14.7,7.6-24.8,7.6  c-10.5,0-18.8-2.4-25.1-7.1c-6.3-4.7-10.8-11.3-13.5-19.8c-2.8-8.5-4.1-18.4-4.1-29.7c0-11.3,1.4-21.2,4.1-29.7  c2.8-8.5,7.2-15.1,13.2-19.8c6-4.7,13.9-7.1,23.7-7.1c10.5,0,19.1,2.6,25.8,7.7c6.7,5.1,11.7,12,14.9,20.5c3.2,8.6,4.8,18,4.8,28.4  C1253,170.9,1251.5,180.4,1248.4,189z M1344.1,0h46.9v41.4h-46.9V0z M1344.1,67.3h46.9v186.3h-46.9V67.3z M1609.2,109.5  c-7.9-14.8-19-26.4-33.2-34.8c-14.2-8.4-30.7-12.6-49.4-12.6c-18.4,0-34.7,4.1-48.8,12.4c-14.1,8.3-25.2,19.8-33.3,34.6  c-8.1,14.8-12.1,31.9-12.1,51.3c0,19.2,3.9,36.2,11.8,51c7.9,14.8,18.9,26.4,33,34.8c14.1,8.4,30.6,12.6,49.3,12.6  c18.6,0,35-4.2,49.2-12.5c14.2-8.3,25.3-19.9,33.3-34.7c8-14.8,12-31.8,12-51.1C1621.1,141.2,1617.1,124.2,1609.2,109.5z   M1560.3,199.7c-7.4,10.2-18.7,15.3-33.7,15.3c-14.6,0-25.7-4.9-33.2-14.7c-7.5-9.8-11.3-23.1-11.3-39.8c0-10.8,1.6-20.3,4.7-28.5  c3.2-8.2,8-14.5,14.6-19.1c6.6-4.6,14.9-6.9,25.2-6.9c14.8,0,26,4.9,33.6,14.8c7.5,9.9,11.3,23.1,11.3,39.7  C1571.4,176.4,1567.7,189.5,1560.3,199.7z"/>
</svg>