<?xml version="1.0" encoding="UTF-8"?>
<svg id="Layer_1" xmlns="http://www.w3.org/2000/svg" viewBox="0 0 51.49 33.17">
  <defs>
    <style>
      .cls-1 {
        fill: #231f20;
      }
    </style>
  </defs>
  <path class="cls-1" d="M47.72,8.06L25.42,3.23v2.15l18.47,4c1.83.39,3.16,3.23,3.16,6.38v1.57c0,3.13-1.34,5.97-3.16,6.36l-18.47,4v2.24l22.31-4.83c2.17-.47,3.77-3.85,3.77-7.58v-1.87c0-3.73-1.59-7.12-3.77-7.58ZM25.42,3.23L12.28.38C7.9-.56,3.46.26,0,2.57v28.02c3.46,2.31,7.9,3.13,12.28,2.19l13.13-2.85v-2.24l-11.3,2.45c-3.68.79-7.42.11-10.32-1.84V4.77c2.91-1.95,6.64-2.63,10.32-1.83l11.3,2.45v-2.15Z"/>
</svg>