<svg xmlns:xlink="http://www.w3.org/1999/xlink" xmlns="http://www.w3.org/2000/svg" width="95" height="14" viewBox="0 0 95 14" fill="none">
<g clip-path="url(#clip0_46_26)">
<path d="M8.30192 1.41375C7.58473 0.820389 6.71274 0.464371 5.67565 0.340539C5.3867 0.304421 5.08228 0.283782 4.76754 0.278623C4.4528 0.273463 4.24642 0.268303 4.14322 0.268303H0V13.0849H4.14838C4.25158 13.0849 4.45796 13.0798 4.7727 13.0746C5.08744 13.0695 5.39186 13.0488 5.68081 13.0127C6.71274 12.8889 7.58989 12.5277 8.30708 11.9343C9.02428 11.341 9.5712 10.5877 9.9427 9.6744C10.3142 8.76113 10.5051 7.76016 10.5051 6.67662C10.5051 5.59309 10.3194 4.59211 9.9427 3.67885C9.56604 2.76043 9.01912 2.00711 8.30192 1.41375ZM7.68276 8.45671C7.51249 9.0346 7.25451 9.52477 6.89849 9.93238C6.54763 10.34 6.08842 10.6031 5.53118 10.7167C5.30931 10.7579 5.0668 10.7837 4.79334 10.794C4.51988 10.8044 4.30317 10.8095 4.14322 10.8095H2.45601V2.54372H4.14838C4.30833 2.54372 4.52504 2.54888 4.7985 2.55404C5.07196 2.5592 5.31963 2.585 5.53634 2.6366C6.0781 2.74495 6.52183 2.99777 6.87785 3.39507C7.23387 3.79236 7.49701 4.27737 7.67244 4.85526C7.84787 5.43314 7.93559 6.03682 7.93559 6.68178C7.94075 7.28547 7.85303 7.87883 7.68276 8.45671ZM19.5139 3.85428C18.7812 3.42087 17.9299 3.20416 16.965 3.20416C16.0156 3.20416 15.1746 3.41571 14.4471 3.84396C13.7196 4.27221 13.1469 4.86558 12.7289 5.62921C12.311 6.39284 12.1046 7.27515 12.1046 8.27612C12.1046 9.26678 12.3058 10.1439 12.7134 10.9076C13.1211 11.6712 13.6886 12.2697 14.4161 12.7031C15.1437 13.1365 15.995 13.3532 16.9599 13.3532C17.9196 13.3532 18.7658 13.1365 19.4984 12.7083C20.2311 12.28 20.8038 11.6815 21.2166 10.9179C21.6294 10.1542 21.8358 9.2771 21.8358 8.28128C21.8358 7.29063 21.6294 6.41348 21.2218 5.64985C20.8193 4.88622 20.2466 4.28769 19.5139 3.85428ZM18.7038 10.3039C18.322 10.8302 17.739 11.0933 16.965 11.0933C16.2117 11.0933 15.639 10.8405 15.252 10.3348C14.865 9.82919 14.669 9.14295 14.669 8.28128C14.669 7.72404 14.7515 7.23387 14.9115 6.81078C15.0766 6.38768 15.3242 6.06262 15.6648 5.82528C16.0053 5.58793 16.4336 5.46926 16.965 5.46926C17.7287 5.46926 18.3065 5.72208 18.6935 6.23289C19.0805 6.7437 19.2766 7.42478 19.2766 8.28128C19.2766 9.10167 19.0857 9.77759 18.7038 10.3039ZM26.0615 6.84173C25.9067 7.26483 25.8294 7.74468 25.8294 8.28128C25.8294 9.11715 26.0151 9.79823 26.3866 10.3142C26.7581 10.8353 27.3102 11.0933 28.0377 11.0933C28.5846 11.0933 28.9974 10.9695 29.2812 10.7218C29.565 10.4741 29.7817 10.1181 29.921 9.65376L32.3976 10.1697C32.1242 11.1913 31.6082 11.9756 30.8497 12.5277C30.0912 13.0798 29.1522 13.3532 28.0377 13.3532C27.0419 13.3532 26.1854 13.1314 25.4733 12.6876C24.7613 12.2439 24.2144 11.6351 23.8377 10.8714C23.4559 10.1078 23.2702 9.24098 23.2702 8.28128C23.2702 7.3061 23.4662 6.43928 23.8635 5.67565C24.2556 4.91201 24.8129 4.30833 25.5301 3.86976C26.2473 3.43119 27.0986 3.20932 28.0738 3.20932C29.2089 3.20932 30.1583 3.4931 30.9271 4.06583C31.6959 4.63855 32.1861 5.41766 32.3976 6.41348L29.9777 7.04812C29.8333 6.54763 29.5856 6.16066 29.2347 5.88203C28.8839 5.60341 28.4814 5.4641 28.0377 5.4641C27.5269 5.4641 27.1089 5.58793 26.7839 5.8356C26.4537 6.0781 26.2112 6.41348 26.0615 6.84173ZM37.1652 3.47246H39.9411V5.34027H37.1652V8.86433C37.1652 9.23582 37.1703 9.57636 37.1806 9.87562C37.191 10.1749 37.2529 10.4122 37.3612 10.5928C37.5728 10.9334 37.9185 11.1139 38.3829 11.1449C38.8524 11.1759 39.3683 11.1501 39.9411 11.0727V13.0849C39.2755 13.2088 38.6254 13.2655 37.9856 13.2501C37.3458 13.2346 36.7782 13.1211 36.2777 12.9095C35.7772 12.698 35.3954 12.3574 35.1323 11.8879C34.8949 11.4493 34.7711 11.0004 34.7608 10.5464C34.7504 10.0923 34.7453 9.57636 34.7453 9.00364V5.33511H33.1097V3.47246H34.7453V0.79975H37.1652V3.47246ZM48.4184 3.85428C47.6858 3.42087 46.8344 3.20416 45.8695 3.20416C44.9202 3.20416 44.0791 3.41571 43.3516 3.84396C42.6241 4.27221 42.0514 4.86558 41.6334 5.62921C41.2155 6.39284 41.0091 7.27515 41.0091 8.27612C41.0091 9.26678 41.2104 10.1439 41.618 10.9076C42.0256 11.6712 42.5931 12.2697 43.3207 12.7031C44.0482 13.1365 44.8995 13.3532 45.8644 13.3532C46.8241 13.3532 47.6703 13.1365 48.4029 12.7083C49.1356 12.28 49.7083 11.6815 50.1211 10.9179C50.5339 10.1542 50.7403 9.2771 50.7403 8.28128C50.7403 7.29063 50.5339 6.41348 50.1263 5.64985C49.7238 4.88622 49.1511 4.28769 48.4184 3.85428ZM47.6084 10.3039C47.2265 10.8302 46.6435 11.0933 45.8695 11.0933C45.1162 11.0933 44.5435 10.8405 44.1565 10.3348C43.7696 9.82919 43.5735 9.14295 43.5735 8.28128C43.5735 7.72404 43.656 7.23387 43.816 6.81078C43.9811 6.38768 44.2288 6.06262 44.5693 5.82528C44.9098 5.58793 45.3381 5.46926 45.8695 5.46926C46.6332 5.46926 47.2111 5.72208 47.598 6.23289C47.985 6.7437 48.1811 7.42478 48.1811 8.28128C48.1862 9.10167 47.9953 9.77759 47.6084 10.3039ZM58.3456 3.47246V5.7324C58.0773 5.64985 57.7678 5.61889 57.4169 5.64985C57.066 5.67565 56.7461 5.7582 56.4624 5.89235C56.1786 6.02134 55.9361 6.19677 55.74 6.41348C55.5439 6.63019 55.3943 6.88301 55.2963 7.17711C55.1931 7.47121 55.1466 7.80143 55.1466 8.16777V13.0798H52.7061V3.47246H54.8422V5.02037C54.9196 4.8759 55.0125 4.74174 55.1105 4.61275C55.3169 4.33929 55.5749 4.11226 55.8742 3.93683C56.1063 3.79236 56.3592 3.68401 56.6326 3.60146C56.9061 3.5189 57.1899 3.47246 57.4788 3.45182C57.7678 3.42603 58.0567 3.43635 58.3456 3.47246ZM67.1584 8.90561C67.3596 9.25646 67.4628 9.68472 67.4628 10.1852C67.4628 11.1707 67.1068 11.9447 66.3947 12.5071C65.6827 13.0695 64.6972 13.3532 63.4382 13.3532C62.2257 13.3532 61.2505 13.0798 60.5075 12.5277C59.7646 11.9808 59.3105 11.2017 59.1506 10.2007L61.6272 9.82919C61.7304 10.2781 61.9523 10.6341 62.298 10.8869C62.6437 11.1397 63.0874 11.2687 63.6188 11.2687C64.0574 11.2687 64.3979 11.1862 64.6353 11.0159C64.8726 10.8456 64.9913 10.6135 64.9913 10.309C64.9913 10.1181 64.9449 9.9685 64.8468 9.84983C64.754 9.73631 64.5373 9.61764 64.2122 9.50929C63.882 9.39577 63.3712 9.24614 62.6746 9.06555C61.8903 8.86433 61.266 8.6373 60.7965 8.38964C60.327 8.14197 59.9916 7.84271 59.78 7.49701C59.5737 7.15131 59.4705 6.72822 59.4705 6.23805C59.4705 5.61889 59.6252 5.08744 59.94 4.63339C60.2547 4.17934 60.6985 3.82848 61.2712 3.58082C61.8439 3.33315 62.5198 3.20932 63.2938 3.20932C64.0471 3.20932 64.7127 3.32283 65.2957 3.55502C65.8788 3.7872 66.3483 4.11742 66.7043 4.54052C67.0655 4.96877 67.2822 5.47442 67.3699 6.0523L64.8933 6.49604C64.852 6.14002 64.6972 5.85624 64.4289 5.64985C64.1606 5.44346 63.7994 5.31963 63.3454 5.28351C62.9016 5.25255 62.5405 5.31447 62.2722 5.45894C62.0039 5.60857 61.8697 5.82012 61.8697 6.09874C61.8697 6.26385 61.9265 6.40316 62.0451 6.51667C62.1586 6.63019 62.4012 6.7437 62.7675 6.86237C63.1338 6.98104 63.6911 7.13584 64.4341 7.32674C65.1616 7.51765 65.7498 7.73952 66.1935 7.99234C66.6373 8.25033 66.9571 8.54959 67.1584 8.90561ZM76.4148 3.8646C75.7338 3.42603 74.934 3.20416 74.0104 3.20416C73.1591 3.20416 72.4367 3.39507 71.8382 3.78204V0.268303H69.3977V13.0849H71.5338V12.5329C71.6009 12.5845 71.6679 12.6361 71.7402 12.6876C72.38 13.1314 73.1797 13.3532 74.1343 13.3532C75.0166 13.3532 75.7905 13.1314 76.4561 12.6876C77.1217 12.2439 77.6377 11.6351 78.0092 10.8714C78.3807 10.1078 78.5664 9.24098 78.5664 8.28128C78.5664 7.30094 78.3755 6.43412 77.9989 5.67049C77.6274 4.90169 77.0959 4.30317 76.4148 3.8646ZM75.7647 9.75179C75.6048 10.1955 75.3571 10.5464 75.0269 10.8044C74.6967 11.0675 74.2684 11.1965 73.7473 11.1965C73.2055 11.1965 72.7773 11.0727 72.4522 10.8302C72.1271 10.5877 71.895 10.2471 71.7556 9.80855C71.6112 9.36998 71.5441 8.85917 71.5441 8.27612C71.5441 7.69308 71.6163 7.18227 71.7556 6.7437C71.9001 6.30513 72.1272 5.96459 72.4367 5.72208C72.7463 5.47958 73.1539 5.35575 73.6596 5.35575C74.2013 5.35575 74.6451 5.4899 74.9908 5.75304C75.3365 6.01618 75.5945 6.3722 75.7596 6.81078C75.9247 7.25451 76.0072 7.73952 76.0072 8.27612C76.0072 8.81789 75.9247 9.30806 75.7647 9.75179ZM80.7025 0H83.1224V2.13611H80.7025V0ZM80.7025 3.47246H83.1224V13.0849H80.7025V3.47246ZM94.386 5.64985C93.9784 4.88622 93.4057 4.28769 92.673 3.85428C91.9403 3.42087 91.089 3.20416 90.1241 3.20416C89.1747 3.20416 88.3337 3.41571 87.6062 3.84396C86.8787 4.27221 86.3059 4.86558 85.888 5.62921C85.4701 6.39284 85.2637 7.27515 85.2637 8.27612C85.2637 9.26678 85.4649 10.1439 85.8725 10.9076C86.2802 11.6712 86.8477 12.2697 87.5752 12.7031C88.3027 13.1365 89.1541 13.3532 90.1189 13.3532C91.0786 13.3532 91.9248 13.1365 92.6575 12.7083C93.3902 12.28 93.9629 11.6815 94.3757 10.9179C94.7885 10.1542 94.9948 9.2771 94.9948 8.28128C95 7.28547 94.7936 6.40832 94.386 5.64985ZM91.8629 10.3039C91.4811 10.8302 90.8981 11.0933 90.1241 11.0933C89.3708 11.0933 88.7981 10.8405 88.4111 10.3348C88.0241 9.82919 87.828 9.14295 87.828 8.28128C87.828 7.72404 87.9106 7.23387 88.0706 6.81078C88.2357 6.38768 88.4833 6.06262 88.8239 5.82528C89.1644 5.58793 89.5927 5.46926 90.1241 5.46926C90.8877 5.46926 91.4656 5.72208 91.8526 6.23289C92.2396 6.7437 92.4356 7.42478 92.4356 8.28128C92.4356 9.10167 92.2447 9.77759 91.8629 10.3039Z" fill="url(#paint0_linear_46_26)"/>
</g>
<defs>
<linearGradient id="paint0_linear_46_26" x1="0" y1="6.67528" x2="94.998" y2="6.67528" gradientUnits="userSpaceOnUse">
<stop stop-color="#7D72E5"/>
<stop offset="0.2407" stop-color="#8A62EA"/>
<stop offset="0.4575" stop-color="#AF69A5"/>
<stop offset="0.6536" stop-color="#DA7B50"/>
<stop offset="0.7849" stop-color="#EB8439"/>
<stop offset="1" stop-color="#FD8516"/>
</linearGradient>
<clipPath id="clip0_46_26">
<rect width="95" height="13.3481" fill="white"/>
</clipPath>
</defs>
</svg>