<svg xmlns:xlink="http://www.w3.org/1999/xlink" xmlns="http://www.w3.org/2000/svg" width="90" height="17" viewBox="0 0 90 17" fill="none">
<g clip-path="url(#clip0_46_24)">
<path d="M0.00976562 0.270372H2.3162V12.4861H0.00976562V0.270372ZM13.214 5.50779C13.1058 5.10453 12.9287 4.71603 12.673 4.34228C12.4222 3.96853 12.0681 3.65871 11.6157 3.41774C11.1633 3.17677 10.578 3.05383 9.86005 3.05383C8.9601 3.05383 8.21751 3.25054 7.62246 3.63904C7.34707 3.821 7.10118 4.03246 6.88972 4.26851V3.3243H4.84393V12.4861H7.18478V7.83881C7.18478 7.26835 7.24871 6.811 7.37658 6.46675C7.50444 6.12251 7.66672 5.86187 7.86343 5.67991C8.06015 5.50287 8.27161 5.37993 8.49783 5.32092C8.72404 5.25698 8.93551 5.22748 9.13222 5.22748C9.62399 5.22748 10.0027 5.33567 10.2731 5.55697C10.5436 5.77827 10.7354 6.05366 10.8534 6.37823C10.9715 6.70773 11.0452 7.0323 11.0649 7.35687C11.0895 7.68144 11.0993 7.947 11.0993 8.15847V12.4861H13.4402V7.34703C13.4402 7.19458 13.4303 6.95361 13.4058 6.61921C13.3861 6.27988 13.3222 5.91105 13.214 5.50779ZM16.0761 2.0506H18.3825V0.0146484H16.0761V2.0506ZM16.0761 13.0271C16.0761 13.4697 15.9777 13.809 15.781 14.045C15.5843 14.2811 15.2253 14.3991 14.6991 14.3991H14.291V16.5531H15.8499C16.6269 16.5531 17.2416 16.3318 17.694 15.8941C18.1514 15.4564 18.3776 14.8712 18.3776 14.1434V3.3243H16.0712V13.0271H16.0761ZM28.8229 5.65532C29.1475 6.47659 29.2606 7.44047 29.1623 8.54697H28.0509H26.8804H22.7298C22.8036 9.09776 22.9757 9.54036 23.2462 9.8846C23.615 10.3518 24.1609 10.5829 24.8789 10.5829C25.3313 10.5829 25.7198 10.4846 26.0395 10.2879C26.3641 10.0911 26.6099 9.80592 26.7772 9.43217L29.0836 10.0961C28.7393 10.9321 28.1935 11.5812 27.4509 12.0484C26.7083 12.5107 25.892 12.7418 25.0117 12.7418C24.0724 12.7418 23.2462 12.5402 22.5282 12.1369C21.8151 11.7337 21.2545 11.178 20.8463 10.4649C20.4431 9.75674 20.2414 8.94039 20.2414 8.02569C20.2414 7.02246 20.4382 6.15202 20.8365 5.41435C21.2299 4.67177 21.7758 4.09639 22.4741 3.68822C23.1675 3.28004 23.9691 3.0735 24.874 3.0735C25.8329 3.0735 26.6542 3.29971 27.3279 3.75215C28.0017 4.19967 28.5033 4.83897 28.8229 5.65532ZM23.2462 5.7881C23.0347 6.0635 22.8823 6.41266 22.7938 6.83559H26.8312C26.7624 6.33889 26.6345 5.95531 26.4378 5.68483C26.1428 5.27666 25.6559 5.07011 24.9822 5.07011C24.1953 5.07011 23.615 5.31108 23.2462 5.7881ZM33.9128 5.57664C34.2226 5.34059 34.621 5.22256 35.1078 5.22256C35.5308 5.22256 35.9144 5.35534 36.2488 5.6209C36.5832 5.88646 36.8192 6.25529 36.9569 6.73231L39.2634 6.12251C39.0617 5.1783 38.5896 4.4308 37.8618 3.88493C37.129 3.34397 36.2242 3.06858 35.1423 3.06858C34.2079 3.06858 33.4014 3.28004 32.7178 3.69805C32.0342 4.11606 31.5031 4.69144 31.1294 5.41927C30.7556 6.1471 30.5638 6.9782 30.5638 7.90274C30.5638 8.81745 30.7458 9.64363 31.1048 10.3715C31.4687 11.0993 31.9851 11.6796 32.6637 12.1025C33.3424 12.5254 34.1587 12.7369 35.1078 12.7369C36.1701 12.7369 37.0651 12.4763 37.788 11.9501C38.5109 11.4239 39.0027 10.6764 39.2634 9.70264L36.9028 9.21087C36.7651 9.65347 36.5635 9.99279 36.293 10.2288C36.0225 10.4649 35.6242 10.5829 35.1078 10.5829C34.4144 10.5829 33.8882 10.337 33.5342 9.84034C33.1801 9.34365 33.003 8.69942 33.003 7.90274C33.003 7.39621 33.0768 6.93886 33.2243 6.53069C33.3719 6.13235 33.603 5.81269 33.9128 5.57664ZM43.8123 0.776902H41.5059V3.31939H39.9469V5.09962H41.5059V8.59615C41.5059 9.14694 41.5108 9.63379 41.5206 10.0666C41.5304 10.4993 41.6485 10.9272 41.8747 11.3452C42.1255 11.7927 42.4845 12.1173 42.9664 12.3189C43.4435 12.5205 43.9893 12.6287 44.5942 12.6435C45.204 12.6582 45.8237 12.6041 46.458 12.4861V10.5682C45.9171 10.6419 45.4204 10.6665 44.9729 10.637C44.5254 10.6075 44.2008 10.4354 43.9992 10.1108C43.891 9.9387 43.832 9.71248 43.827 9.42725C43.8172 9.14202 43.8123 8.82236 43.8123 8.46337V5.10453H46.458V3.3243H43.8123V0.776902ZM56.1706 5.3996C56.5591 6.12743 56.7558 6.96345 56.7558 7.90766C56.7558 8.85679 56.5591 9.69773 56.1657 10.4206C55.7723 11.1485 55.2264 11.714 54.5281 12.1271C53.8298 12.5353 53.0233 12.7418 52.1086 12.7418C51.1889 12.7418 50.3775 12.5353 49.6841 12.1222C48.9907 11.7091 48.4448 11.1386 48.0612 10.4108C47.6727 9.68297 47.4809 8.84695 47.4809 7.90274C47.4809 6.9487 47.6777 6.10776 48.076 5.37993C48.4694 4.6521 49.0153 4.08656 49.7136 3.67838C50.4119 3.27021 51.2086 3.06858 52.1135 3.06858C53.0331 3.06858 53.8445 3.27513 54.5429 3.68822C55.2363 4.10131 55.7821 4.67177 56.1706 5.3996ZM54.3117 7.90274C54.3117 7.08639 54.1248 6.43725 53.756 5.95039C53.3872 5.46353 52.8364 5.22256 52.1086 5.22256C51.6069 5.22256 51.1939 5.33567 50.8693 5.56189C50.5447 5.7881 50.3087 6.10284 50.1513 6.50118C49.9939 6.90444 49.9202 7.37162 49.9202 7.90274C49.9202 8.72401 50.107 9.37315 50.4759 9.86001C50.8447 10.342 51.3906 10.5829 52.1086 10.5829C52.8511 10.5829 53.4019 10.3321 53.7658 9.8305C54.1298 9.33381 54.3117 8.68958 54.3117 7.90274ZM63.1686 3.30463C62.8932 3.3243 62.6227 3.37348 62.3621 3.44725C62.1015 3.52593 61.8605 3.6292 61.6392 3.7669C61.349 3.93411 61.1081 4.15049 60.9114 4.41113C60.8179 4.53407 60.7343 4.66194 60.6556 4.79963V3.3243H58.6197V12.4861H60.9458V7.80439C60.9458 7.45522 60.995 7.14049 61.0884 6.86018C61.1867 6.57986 61.3245 6.33889 61.5113 6.13235C61.6982 5.9258 61.9293 5.7586 62.1998 5.63565C62.4703 5.50779 62.7752 5.42911 63.1096 5.40452C63.444 5.37993 63.744 5.40452 63.9948 5.4832V3.3243C63.7243 3.28988 63.4489 3.28496 63.1686 3.30463ZM73.7959 5.41435C74.1549 6.14218 74.3369 6.97328 74.3369 7.90274C74.3369 8.81745 74.1598 9.64363 73.8057 10.3715C73.4517 11.0993 72.9599 11.6796 72.3255 12.1025C71.6911 12.5254 70.9534 12.7369 70.1125 12.7369C69.2027 12.7369 68.4405 12.5254 67.8307 12.1025C67.7618 12.0583 67.6979 12.0091 67.6339 11.955V12.4812H65.598V0.270372H67.9241V3.61937C68.4945 3.25054 69.183 3.06858 69.9945 3.06858C70.8698 3.06858 71.6321 3.28004 72.2861 3.69805C72.9304 4.11606 73.4369 4.68652 73.7959 5.41435ZM71.8878 7.90274C71.8878 7.39621 71.8091 6.92902 71.6518 6.5061C71.4944 6.08317 71.2485 5.74876 70.919 5.49796C70.5895 5.24715 70.1666 5.11929 69.6502 5.11929C69.1683 5.11929 68.7798 5.23731 68.4847 5.46845C68.1896 5.69958 67.9733 6.02416 67.8356 6.44217C67.6979 6.86018 67.6339 7.34703 67.6339 7.90274C67.6339 8.45845 67.7028 8.94531 67.8356 9.36332C67.9733 9.78133 68.1946 10.1059 68.4995 10.337C68.8093 10.5682 69.2175 10.6862 69.7338 10.6862C70.2305 10.6862 70.6387 10.5633 70.9534 10.3124C71.2682 10.0616 71.5042 9.72723 71.6567 9.30922C71.814 8.88629 71.8878 8.41911 71.8878 7.90274ZM76.3679 2.0506H78.6743V0.0146484H76.3679V2.0506ZM76.3679 12.4861H78.6743V3.3243H76.3679V12.4861ZM89.9901 7.90274C89.9901 8.85187 89.7934 9.69281 89.4 10.4157C89.0065 11.1435 88.4607 11.7091 87.7623 12.1222C87.064 12.5304 86.2575 12.7369 85.3428 12.7369C84.4232 12.7369 83.6118 12.5304 82.9184 12.1173C82.2249 11.7042 81.6791 11.1337 81.2955 10.4059C80.907 9.67805 80.7152 8.84204 80.7152 7.89782C80.7152 6.94378 80.9119 6.10284 81.3102 5.37501C81.7037 4.64718 82.2495 4.08164 82.9479 3.67346C83.6462 3.26529 84.4429 3.06366 85.3477 3.06366C86.2673 3.06366 87.0788 3.27021 87.7771 3.6833C88.4754 4.09639 89.0213 4.66685 89.4098 5.39468C89.7983 6.12251 89.9901 6.95853 89.9901 7.90274ZM87.5509 7.90274C87.5509 7.08639 87.364 6.43725 86.9952 5.95039C86.6263 5.46353 86.0756 5.22256 85.3477 5.22256C84.8461 5.22256 84.433 5.33567 84.1085 5.56189C83.7839 5.7881 83.5478 6.10284 83.3904 6.50118C83.2331 6.90444 83.1593 7.37162 83.1593 7.90274C83.1593 8.72401 83.3462 9.37315 83.715 9.86001C84.0839 10.342 84.6297 10.5829 85.3477 10.5829C86.0903 10.5829 86.6411 10.3321 87.005 9.8305C87.364 9.33381 87.5509 8.68958 87.5509 7.90274Z" fill="url(#paint0_linear_46_24)"/>
</g>
<defs>
<linearGradient id="paint0_linear_46_24" x1="0.00820178" y1="8.28649" x2="89.9917" y2="8.28649" gradientUnits="userSpaceOnUse">
<stop stop-color="#7D72E5"/>
<stop offset="0.2407" stop-color="#8A62EA"/>
<stop offset="0.4575" stop-color="#AF69A5"/>
<stop offset="0.6536" stop-color="#DA7B50"/>
<stop offset="0.7849" stop-color="#EB8439"/>
<stop offset="1" stop-color="#FD8516"/>
</linearGradient>
<clipPath id="clip0_46_24">
<rect width="90" height="16.5729" fill="white"/>
</clipPath>
</defs>
</svg>