<svg xmlns:xlink="http://www.w3.org/1999/xlink" xmlns="http://www.w3.org/2000/svg" width="130" height="13" viewBox="0 0 130 13" fill="none">
<g clip-path="url(#clip0_46_28)">
<path d="M8.02139 1.04843C7.55158 0.677521 6.95318 0.435196 6.21632 0.321452C6.05806 0.291779 5.87508 0.276943 5.67232 0.267052C5.46956 0.257161 5.31131 0.252216 5.19262 0.252216H0.00488281V12.5366H2.32428V8.37258H5.19262C5.30636 8.37258 5.46462 8.36763 5.67232 8.35774C5.87508 8.34785 6.05806 8.32807 6.21632 8.30829C6.94329 8.19454 7.54169 7.95222 8.0115 7.58131C8.48132 7.21041 8.82749 6.74554 9.05004 6.18671C9.27258 5.62788 9.38633 5.00476 9.38633 4.3124C9.38633 3.62499 9.27753 3.00186 9.05498 2.43809C8.83739 1.8842 8.49121 1.41933 8.02139 1.04843ZM6.95318 5.01959C6.88889 5.26686 6.7702 5.48941 6.59711 5.69217C6.42897 5.89493 6.18665 6.03835 5.87014 6.12242C5.75145 6.15704 5.61792 6.18176 5.47945 6.19165C5.33604 6.20154 5.20745 6.20649 5.08876 6.20649H2.32923V2.42325H5.09371C5.2124 2.42325 5.34593 2.4282 5.4844 2.43809C5.62781 2.44798 5.75639 2.47271 5.87508 2.50732C6.18665 2.59139 6.42897 2.73481 6.60206 2.93757C6.7702 3.14034 6.88889 3.36288 6.95813 3.61015C7.02242 3.85742 7.05704 4.08985 7.05704 4.3124C7.05209 4.53989 7.02242 4.77232 6.95318 5.01959ZM19.6926 6.63674C19.7173 6.97303 19.7272 7.21535 19.7272 7.36866V12.5366H17.3732V8.18465C17.3732 7.972 17.3633 7.70495 17.3385 7.37855C17.3138 7.05215 17.2446 6.72081 17.1259 6.39442C17.0072 6.06307 16.8094 5.79108 16.5423 5.56853C16.2703 5.34599 15.8895 5.23719 15.395 5.23719C15.1972 5.23719 14.9845 5.26686 14.757 5.33115C14.5296 5.39544 14.3169 5.51413 14.1191 5.69217C13.9213 5.8702 13.7581 6.13231 13.6295 6.48343C13.5009 6.82961 13.4366 7.28953 13.4366 7.8632V12.5366H11.0777V0.257161H13.1399V4.27778C13.3525 4.0404 13.5998 3.82775 13.8768 3.64477C14.4702 3.25408 15.2219 3.05626 16.1269 3.05626C16.8489 3.05626 17.4375 3.1799 17.8924 3.42222C18.3474 3.66455 18.7035 3.97611 18.9557 4.35196C19.2079 4.72781 19.3909 5.1185 19.4997 5.52402C19.6085 5.92955 19.6728 6.30045 19.6926 6.63674ZM29.3015 4.74265C28.9751 4.12942 28.5003 3.69422 27.8673 3.44695C27.2343 3.19473 26.5123 3.0711 25.7012 3.0711C24.5935 3.0711 23.7181 3.30848 23.0752 3.78818C22.4323 4.26789 21.9922 4.88607 21.7597 5.64766L23.8566 6.31529C24.005 5.89493 24.2621 5.60315 24.633 5.43501C25.0039 5.27181 25.36 5.18774 25.7012 5.18774C26.3145 5.18774 26.7546 5.31632 27.0167 5.57348C27.2195 5.77624 27.3481 6.06307 27.3926 6.44387C27.0019 6.50321 26.626 6.55761 26.2749 6.61201C25.6765 6.70103 25.1424 6.79499 24.6726 6.88896C24.2028 6.98786 23.7923 7.09666 23.4511 7.2203C22.9565 7.40328 22.5609 7.63077 22.2691 7.89782C21.9773 8.16982 21.7647 8.48138 21.6312 8.8325C21.5026 9.18363 21.4333 9.57431 21.4333 9.99962C21.4333 10.509 21.552 10.9788 21.7894 11.4041C22.0268 11.8294 22.373 12.1657 22.8279 12.4179C23.2879 12.6701 23.8467 12.7987 24.5044 12.7987C25.3007 12.7987 25.9584 12.6602 26.4777 12.3833C26.8881 12.1657 27.2739 11.8393 27.6398 11.4091V12.5416H29.6724V6.90874C29.6724 6.48838 29.6576 6.10758 29.6229 5.76635C29.5883 5.42511 29.4795 5.08388 29.3015 4.74265ZM27.1354 9.74246C27.0711 9.87104 26.9524 10.0342 26.7793 10.2271C26.6062 10.42 26.3738 10.5931 26.082 10.7414C25.7903 10.8898 25.4292 10.9689 25.0039 10.9689C24.7369 10.9689 24.5044 10.9294 24.3116 10.8502C24.1187 10.7711 23.9703 10.6574 23.8615 10.5041C23.7577 10.3557 23.7033 10.1727 23.7033 9.96006C23.7033 9.80675 23.7379 9.66828 23.8022 9.5397C23.8665 9.41606 23.9703 9.29737 24.1088 9.19352C24.2473 9.08966 24.4303 8.99076 24.6578 8.89679C24.8556 8.82261 25.088 8.75338 25.3501 8.69403C25.6122 8.62974 25.9535 8.5605 26.3837 8.48632C26.6557 8.43687 26.987 8.37753 27.3678 8.31323C27.3629 8.47643 27.353 8.65447 27.3431 8.85723C27.3233 9.19846 27.2541 9.49024 27.1354 9.74246ZM37.3032 3.32826V5.49435C37.046 5.41522 36.7493 5.38555 36.413 5.41522C36.0767 5.43995 35.7701 5.51908 35.4981 5.64766C35.2261 5.77129 34.9937 5.93944 34.8057 6.14714C34.6178 6.35485 34.4744 6.59718 34.3804 6.87907C34.2815 7.16095 34.237 7.47746 34.237 7.82858V12.5366H31.8978V3.32826H33.9452V4.81188C34.0194 4.67341 34.1084 4.54483 34.2024 4.4212C34.4002 4.15909 34.6475 3.94149 34.9343 3.77335C35.1569 3.63488 35.3992 3.53102 35.6613 3.4519C35.9234 3.37277 36.1954 3.32826 36.4723 3.30848C36.7443 3.28375 37.0213 3.29364 37.3032 3.32826ZM51.5262 4.0404C52.0652 4.66352 52.3323 5.47951 52.3323 6.48343V12.5416H50.0129V7.10161C50.0129 6.49332 49.8695 6.01856 49.5826 5.68228C49.2958 5.34599 48.9002 5.1729 48.3908 5.1729C48.0644 5.1729 47.7874 5.24708 47.5451 5.40039C47.3077 5.54875 47.1198 5.7614 46.9863 6.0334C46.8528 6.3054 46.7835 6.61696 46.7835 6.96808V12.5465H44.4641V7.10655C44.4641 6.49827 44.3207 6.02351 44.0339 5.68722C43.747 5.35093 43.3514 5.17784 42.842 5.17784C42.3574 5.17784 41.9716 5.34599 41.6799 5.67733C41.3881 6.00867 41.2397 6.43892 41.2397 6.96808V12.5465H38.9005V3.32826H40.9479V4.33712C41.215 4.00578 41.5463 3.73378 41.9321 3.52113C42.4414 3.24419 43.0102 3.10077 43.6432 3.10077C44.3652 3.10077 44.9587 3.25408 45.4235 3.5607C45.8093 3.81291 46.106 4.13931 46.3285 4.53494C46.6203 4.09974 46.9962 3.75851 47.466 3.5063C47.9704 3.2343 48.5292 3.10077 49.1425 3.10077C50.1959 3.10572 50.9871 3.41728 51.5262 4.0404ZM61.9016 4.74265C61.5752 4.12942 61.1005 3.69422 60.4675 3.44695C59.8345 3.19473 59.1124 3.0711 58.3014 3.0711C57.1936 3.0711 56.3183 3.30848 55.6754 3.78818C55.0325 4.26789 54.5973 4.88607 54.3599 5.64766L56.4567 6.31529C56.6051 5.89493 56.8623 5.60315 57.2332 5.43501C57.6041 5.27181 57.9601 5.18774 58.3014 5.18774C58.9146 5.18774 59.3548 5.31632 59.6169 5.57348C59.8196 5.77624 59.9482 6.06307 59.9927 6.44387C59.602 6.50321 59.2262 6.55761 58.875 6.61201C58.2766 6.70103 57.7425 6.79499 57.2727 6.88896C56.8029 6.98786 56.3925 7.09666 56.0512 7.2203C55.5567 7.40328 55.161 7.63077 54.8693 7.89782C54.5775 8.16982 54.3648 8.48138 54.2313 8.8325C54.1027 9.18363 54.0335 9.57431 54.0335 9.99962C54.0335 10.509 54.1522 10.9788 54.3896 11.4041C54.6269 11.8294 54.9731 12.1657 55.4281 12.4179C55.888 12.6701 56.4468 12.7987 57.1046 12.7987C57.9008 12.7987 58.5585 12.6602 59.0778 12.3833C59.4883 12.1657 59.874 11.8393 60.24 11.4091V12.5416H62.2725V6.90874C62.2725 6.48838 62.2577 6.10758 62.2231 5.76635C62.1934 5.42511 62.0846 5.08388 61.9016 4.74265ZM59.7355 9.74246C59.6713 9.87104 59.5526 10.0342 59.3795 10.2271C59.2064 10.42 58.974 10.5931 58.6822 10.7414C58.3904 10.8898 58.0294 10.9689 57.6041 10.9689C57.337 10.9689 57.1046 10.9294 56.9117 10.8502C56.7188 10.7711 56.5705 10.6574 56.4617 10.5041C56.3578 10.3557 56.3034 10.1727 56.3034 9.96006C56.3034 9.80675 56.3381 9.66828 56.4023 9.5397C56.4666 9.41606 56.5705 9.29737 56.709 9.19352C56.8474 9.08966 57.0304 8.99076 57.2579 8.89679C57.4557 8.82261 57.6881 8.75338 57.9503 8.69403C58.2124 8.62974 58.5536 8.5605 58.9838 8.48632C59.2558 8.43687 59.5872 8.37753 59.968 8.31323C59.963 8.47643 59.9531 8.65447 59.9433 8.85723C59.9235 9.19846 59.8542 9.49024 59.7355 9.74246ZM66.6641 6.55761C66.5157 6.96314 66.4415 7.42306 66.4415 7.93738C66.4415 8.73854 66.6196 9.39133 66.9756 9.88587C67.3317 10.3854 67.8609 10.6326 68.5582 10.6326C69.0824 10.6326 69.478 10.5139 69.75 10.2766C70.022 10.0392 70.2297 9.69795 70.3632 9.25286L72.737 9.7474C72.4749 10.7266 71.9804 11.4783 71.2534 12.0075C70.5264 12.5366 69.6264 12.7987 68.5582 12.7987C67.6037 12.7987 66.7828 12.5861 66.1003 12.1608C65.4178 11.7355 64.8936 11.1519 64.5326 10.42C64.1666 9.68806 63.9886 8.85723 63.9886 7.93738C63.9886 7.0027 64.1765 6.17187 64.5573 5.43995C64.9332 4.70803 65.4673 4.12942 66.1547 3.70906C66.8421 3.2887 67.6581 3.07605 68.5928 3.07605C69.6808 3.07605 70.5907 3.34804 71.3276 3.89698C72.0645 4.44592 72.5343 5.19268 72.737 6.14714L70.4176 6.76038C70.2792 6.28067 70.0418 5.90976 69.7055 5.64271C69.3692 5.37566 68.9835 5.24213 68.5582 5.24213C68.0686 5.24213 67.668 5.36082 67.3564 5.5982C67.0399 5.82569 66.8124 6.14714 66.6641 6.55761ZM74.3591 3.32826H76.6785V12.5416H74.3591V3.32826ZM74.3591 0H76.6785V2.0474H74.3591V0ZM86.4012 8.53578C86.5941 8.87207 86.693 9.28253 86.693 9.76224C86.693 10.7068 86.3517 11.4486 85.6693 11.9877C84.9868 12.5267 84.0422 12.7987 82.8356 12.7987C81.6734 12.7987 80.7387 12.5366 80.0266 12.0075C79.3144 11.4832 78.8792 10.7365 78.7259 9.77708L81.0997 9.42101C81.1986 9.85126 81.4113 10.1925 81.7426 10.4348C82.074 10.6771 82.4993 10.8008 83.0086 10.8008C83.429 10.8008 83.7554 10.7216 83.9829 10.5585C84.2104 10.3953 84.3241 10.1727 84.3241 9.88093C84.3241 9.69795 84.2796 9.55453 84.1857 9.44079C84.0966 9.33199 83.8889 9.21824 83.5774 9.11439C83.2609 9.00559 82.7713 8.86217 82.1036 8.68909C81.3519 8.49621 80.7535 8.27862 80.3035 8.04124C79.8535 7.80386 79.532 7.51702 79.3293 7.18568C79.1314 6.85434 79.0325 6.44881 79.0325 5.979C79.0325 5.38555 79.1809 4.87617 79.4826 4.44098C79.7842 4.00578 80.2095 3.66949 80.7585 3.43211C81.3074 3.19474 81.9553 3.07605 82.6971 3.07605C83.4191 3.07605 84.0571 3.18484 84.6159 3.40739C85.1747 3.62993 85.6248 3.94644 85.966 4.35196C86.3122 4.76243 86.5199 5.24708 86.604 5.80097L84.2302 6.22627C84.1906 5.88504 84.0422 5.61304 83.7851 5.41522C83.5279 5.21741 83.1817 5.09872 82.7465 5.0641C82.3212 5.03443 81.9751 5.09377 81.7179 5.23224C81.4607 5.37566 81.3322 5.57842 81.3322 5.84547C81.3322 6.00373 81.3866 6.13725 81.5003 6.24605C81.6091 6.35485 81.8415 6.46365 82.1926 6.5774C82.5438 6.69114 83.0779 6.8395 83.79 7.02248C84.4873 7.20546 85.0511 7.41811 85.4764 7.66044C85.9017 7.90771 86.2083 8.19454 86.4012 8.53578ZM91.4356 3.32826H94.0963V5.1185H91.4356V8.49621C91.4356 8.85228 91.4406 9.17868 91.4505 9.46551C91.4604 9.75235 91.5147 9.97984 91.6236 10.1529C91.8263 10.4793 92.1577 10.6524 92.6027 10.6821C93.0528 10.7118 93.5473 10.687 94.0963 10.6129V12.5416C93.4583 12.6602 92.8352 12.7146 92.2219 12.6998C91.6087 12.685 91.0647 12.5762 90.585 12.3734C90.1053 12.1707 89.7393 11.8443 89.4871 11.3942C89.2596 10.9739 89.141 10.5436 89.1311 10.1084C89.1212 9.67322 89.1162 9.17868 89.1162 8.62974V5.11355H87.5485V3.32826H89.1162V0.766539H91.4356V3.32826ZM103.31 8.53578C103.502 8.87207 103.601 9.28253 103.601 9.76224C103.601 10.7068 103.26 11.4486 102.578 11.9877C101.895 12.5267 100.951 12.7987 99.7439 12.7987C98.5817 12.7987 97.6471 12.5366 96.9349 12.0075C96.2228 11.4832 95.7876 10.7365 95.6343 9.77708L98.0081 9.42101C98.107 9.85126 98.3196 10.1925 98.651 10.4348C98.9823 10.6771 99.4076 10.8008 99.917 10.8008C100.337 10.8008 100.664 10.7216 100.891 10.5585C101.119 10.3953 101.232 10.1727 101.232 9.88093C101.232 9.69795 101.188 9.55453 101.094 9.44079C101.005 9.33199 100.797 9.21824 100.486 9.11439C100.169 9.00559 99.6796 8.86217 99.012 8.68909C98.2603 8.49621 97.6619 8.27862 97.2119 8.04124C96.7618 7.80386 96.4404 7.51702 96.2376 7.18568C96.0398 6.85434 95.9409 6.44881 95.9409 5.979C95.9409 5.38555 96.0893 4.87617 96.3909 4.44098C96.6926 4.00578 97.1179 3.66949 97.6668 3.43211C98.2158 3.19474 98.8636 3.07605 99.6054 3.07605C100.327 3.07605 100.965 3.18484 101.524 3.40739C102.083 3.62993 102.533 3.94644 102.874 4.35196C103.221 4.76243 103.428 5.24708 103.512 5.80097L101.139 6.22627C101.099 5.88504 100.951 5.61304 100.693 5.41522C100.436 5.21741 100.09 5.09872 99.6549 5.0641C99.2296 5.03443 98.8834 5.09377 98.6263 5.23224C98.3691 5.37566 98.2405 5.57842 98.2405 5.84547C98.2405 6.00373 98.2949 6.13725 98.4087 6.24605C98.5175 6.35485 98.7499 6.46365 99.101 6.5774C99.4521 6.69114 99.9862 6.8395 100.698 7.02248C101.396 7.20546 101.959 7.41811 102.385 7.66044C102.805 7.90771 103.117 8.19454 103.31 8.53578ZM112.182 3.70411C111.529 3.28375 110.762 3.0711 109.877 3.0711C109.061 3.0711 108.369 3.25408 107.795 3.62499V0.257161H105.456V12.5416H107.503V12.0124C107.568 12.0619 107.632 12.1113 107.701 12.1608C108.314 12.5861 109.081 12.7987 109.996 12.7987C110.841 12.7987 111.583 12.5861 112.221 12.1608C112.859 11.7355 113.354 11.1519 113.71 10.42C114.066 9.68806 114.244 8.85723 114.244 7.93738C114.244 6.99776 114.061 6.16693 113.7 5.43501C113.344 4.69814 112.834 4.12447 112.182 3.70411ZM111.558 9.34682C111.405 9.77213 111.168 10.1084 110.851 10.3557C110.535 10.6079 110.124 10.7315 109.625 10.7315C109.106 10.7315 108.695 10.6128 108.384 10.3804C108.072 10.148 107.849 9.82158 107.716 9.40123C107.577 8.98086 107.513 8.49127 107.513 7.93244C107.513 7.37361 107.582 6.88401 107.716 6.46365C107.854 6.04329 108.072 5.71689 108.369 5.48446C108.665 5.25203 109.056 5.13334 109.541 5.13334C110.06 5.13334 110.485 5.26192 110.817 5.51413C111.148 5.76635 111.395 6.10758 111.554 6.52794C111.712 6.95325 111.791 7.41811 111.791 7.93244C111.786 8.45171 111.712 8.92152 111.558 9.34682ZM116.291 3.32826H118.611V12.5416H116.291V3.32826ZM116.291 0H118.611V2.0474H116.291V0ZM129.402 5.41522C129.011 4.6833 128.462 4.10964 127.76 3.69422C127.057 3.27881 126.241 3.0711 125.317 3.0711C124.407 3.0711 123.601 3.27386 122.903 3.68433C122.206 4.0948 121.657 4.66352 121.256 5.39544C120.856 6.12736 120.658 6.97303 120.658 7.93244C120.658 8.88196 120.851 9.72268 121.242 10.4546C121.632 11.1865 122.176 11.7602 122.874 12.1756C123.571 12.591 124.387 12.7987 125.312 12.7987C126.232 12.7987 127.043 12.591 127.745 12.1805C128.447 11.7701 128.996 11.1964 129.392 10.4645C129.787 9.73257 129.985 8.89185 129.985 7.93738C129.99 6.98292 129.797 6.1422 129.402 5.41522ZM126.983 9.87598C126.617 10.3804 126.058 10.6326 125.317 10.6326C124.595 10.6326 124.046 10.3903 123.675 9.90566C123.304 9.42101 123.116 8.76327 123.116 7.93738C123.116 7.40328 123.195 6.93347 123.348 6.52794C123.507 6.12242 123.744 5.81086 124.07 5.58337C124.397 5.35588 124.807 5.24213 125.317 5.24213C126.049 5.24213 126.602 5.48446 126.973 5.97406C127.344 6.46365 127.532 7.11645 127.532 7.93738C127.537 8.7237 127.349 9.37155 126.983 9.87598Z" fill="url(#paint0_linear_46_28)"/>
</g>
<defs>
<linearGradient id="paint0_linear_46_28" x1="0.0067769" y1="6.39808" x2="129.992" y2="6.39808" gradientUnits="userSpaceOnUse">
<stop stop-color="#7D72E5"/>
<stop offset="0.2407" stop-color="#8A62EA"/>
<stop offset="0.4575" stop-color="#AF69A5"/>
<stop offset="0.6536" stop-color="#DA7B50"/>
<stop offset="0.7849" stop-color="#EB8439"/>
<stop offset="1" stop-color="#FD8516"/>
</linearGradient>
<clipPath id="clip0_46_28">
<rect width="130" height="12.7938" fill="white"/>
</clipPath>
</defs>
</svg>